/* XPM */
static char *d7d4d325de1c4683f28e53a278b16104[] = {
/* columns rows colors chars-per-pixel */
"128 128 66 1 ",
"  c #37484F",
". c #364650",
"X c #374952",
"o c #394C56",
"O c #3D4F58",
"+ c #3D515A",
"@ c #42545E",
"# c #435661",
"$ c #465B66",
"% c #485D67",
"& c #475D68",
"* c #495E6A",
"= c #4C626D",
"- c #4F7C6B",
"; c #547D6D",
": c #4E6672",
"> c #4F6873",
", c #506774",
"< c #506975",
"1 c #546D7A",
"2 c #527472",
"3 c #56717D",
"4 c #58727F",
"5 c #4E965F",
"6 c #4D9E59",
"7 c #62965F",
"8 c #659B5C",
"9 c #689F5A",
"0 c #4CAF50",
"q c #4FA15C",
"w c #6DBA4C",
"e c #7FBC4D",
"r c #6CA757",
"t c #6EAA56",
"y c #67A05A",
"u c #6AA35C",
"i c #6FA95F",
"p c #71AE55",
"a c #71AE5A",
"s c #73B153",
"d c #79B752",
"f c #7AB951",
"g c #73B059",
"h c #5A8267",
"j c #5D8C64",
"k c #52806E",
"l c #598169",
"z c #519963",
"x c #619263",
"c c #63916E",
"v c #689B6D",
"b c #61867C",
"n c #648D7B",
"m c #669375",
"M c #679870",
"N c #6BA364",
"B c #81BE4C",
"V c #85C14B",
"C c #8BC34A",
"Z c #5A7582",
"A c #5D7886",
"S c #5F7C8A",
"D c #607D8B",
"F c #628285",
"G c #608088",
"H c None",
/* pixels */
"HHHHHHHHHHHHHHHHHHHHHHHHHHHHHHHHHHHHHHHHHHHHHHHHHHHHHHHHHHHHHHHHHHHHHHHHHHHHHHHHHHHHHHHHHHHHHHHHHHHHHHHHHHHHHHHHHHHHHHHHHHHHHHHH",
"HHHHHHHHHHHHHHHHHHHHHHHHHHHHHHHHHHHHHHHHHHHHHHHHHHHHHHHHHHHHHH&$$$HHHHHHHHHHHHHHHHHHHHHHHHHHHHHHHHHHHHHHHHHHHHHHHHHHHHHHHHHHHHHH",
"HHHHHHHHHHHHHHHHHHHHHHHHHHHHHHHHHHHHHHHHHHHHHHHHHHHHH=3ZSDDDDDDDDDDDDDDSZ3=HHHHHHHHHHHHHHHHHHHHHHHHHHHHHHHHHHHHHHHHHHHHHHHHHHHHH",
"HHHHHHHHHHHHHHHHHHHHHHHHHHHHHHHHHHHHHHHHHHHHHHHH$1SDDDDDDDDDDDDDDDDDDDDDDDDDDA1&HHHHHHHHHHHHHHHHHHHHHHHHHHHHHHHHHHHHHHHHHHHHHHHH",
"HHHHHHHHHHHHHHHHHHHHHHHHHHHHHHHHHHHHHHHHHHHHH>ZDDDDDDDDDDDDDDDDDDDDDDDDDDDDDDDDDDA>HHHHHHHHHHHHHHHHHHHHHHHHHHHHHHHHHHHHHHHHHHHHH",
"HHHHHHHHHHHHHHHHHHHHHHHHHHHHHHHHHHHHHHHHHH=ADDDDDDDDDDDDDDDDDDDDDDDDDDDDDDDDDDDDDDSDZ=HHHHHHHHHHHHHHHHHHHHHHHHHHHHHHHHHHHHHHHHHH",
"HHHHHHHHHHHHHHHHHHHHHHHHHHHHHHHHHHHHHHHH3SDDDDDDDDDDDDDDDDDDDDDDDDDDDDDDDDDDDDDDDDDDDDS3HHHHHHHHHHHHHHHHHHHHHHHHHHHHHHHHHHHHHHHH",
"HHHHHHHHHHHHHHHHHHHHHHHHHHHHHHHHHHHHHH3DDDDDDDDDDDDDDDDDDDDDDDDDDDDDDDDDDDDDDDDDDDDDDDDDDZHHHHHHHHHHHHHHHHHHHHHHHHHHHHHHHHHHHHHH",
"HHHHHHHHHHHHHHHHHHHHHHHHHHHHHHHHHHHH3DDDDDDDDDDDDDDDDDDDDDDDDDDDDDDDDDDDDDDDDDDDDDDDDDDDDDDZHHHHHHHHHHHHHHHHHHHHHHHHHHHHHHHHHHHH",
"HHHHHHHHHHHHHHHHHHHHHHHHHHHHHHHHHHZDDDDDDDDDDDDDDDDDDDDDDDDDDDDDDDDDDDDDDDDDDDDDDDDDDDDDDDDDD4HHHHHHHHHHHHHHHHHHHHHHHHHHHHHHHHHH",
"HHHHHHHHHHHHHHHHHHHHHHHHHHHHHHHH*DDDDDDDDDDDDDDDDDDDDDDDDDDDDDDDDDDDDDDDDDDDDDDDDDDDDDDDDDDDDDS>HHHHHHHHHHHHHHHHHHHHHHHHHHHHHHHH",
"HHHHHHHHHHHHHHHHHHHHHHHHHHHHHHHADDDDDDDDDDDDDDDDDDDDDDDDDDDDDDDDDDDDDDDDDDDDDDDDDDDDDDDDDDDDDDDDAHHHHHHHHHHHHHHHHHHHHHHHHHHHHHHH",
"HHHHHHHHHHHHHHHHHHHHHHHHHHHHH1SDDDDDDDDDDDDDDDDDDDDDDDDDDDDDDDGnmnGDDDDDDDDDDDDDDDDDDDDDDDDDDDDDDD1HHHHHHHHHHHHHHHHHHHHHHHHHHHHH",
"HHHHHHHHHHHHHHHHHHHHHHHHHHHHZDDDDDDDDDDDDDDDDDDDDDDDDDDDDDDMgVCCCCCBgmDDDDDDDDDDDDDDDDDDDDDDDDDDDDDZHHHHHHHHHHHHHHHHHHHHHHHHHHHH",
"HHHHHHHHHHHHHHHHHHHHHHHHHHHSDDDDDDDDDDDDDDDDDDDDDDDDDDDDDMeCCCCCCCCCCCdnDDDDDDDDDDDDDDDDDDDDDDDDDDDDSHHHHHHHHHHHHHHHHHHHHHHHHHHH",
"HHHHHHHHHHHHHHHHHHHHHHHHH<DDDDDDDDDDDDDDDDDDDDDDDDDDDDDDiCCCCCCCCCCCCCCCNDDDDDDDDDDDDDDDDDDDDDDDDDDDDD<HHHHHHHHHHHHHHHHHHHHHHHHH",
"HHHHHHHHHHHHHHHHHHHHHHHH3DDDDDDDDDDDDDDDDDDDDDDDDDDDDDGdCCCCCCCCCCCCCCCCCaSDDDDDDDDDDDDDDDDDDDDDDDDDDDD3HHHHHHHHHHHHHHHHHHHHHHHH",
"HHHHHHHHHHHHHHHHHHHHHHHZDDDDDDDDDDDDDDDDDDDDDDDDDDDDDDsCCCCCCCCCCCCCCCCCCCuSDDDDDDDDDDDDDDDDDDDDDDDDDDDDZHHHHHHHHHHHHHHHHHHHHHHH",
"HHHHHHHHHHHHHHHHHHHHHHZDDDDDDDDDDDDDDDDDDDDDDDDDDDDDDNCCCCCCCCCCCCCCCCCCCCCxSDDDDDDDDDDDDDDDDDDDDDDDDDDDDZHHHHHHHHHHHHHHHHHHHHHH",
"HHHHHHHHHHHHHHHHHHHHHADDDDDDDDDDDDDDDDDDDDDDDDDDDDDDFVCCCCCCCCCCCCCCCCCCCCCe3SDDDDDDDDDDDDDDDDDDDDDDDDDDDDAHHHHHHHHHHHHHHHHHHHHH",
"HHHHHHHHHHHHHHHHHHHHADDDDDDDDDDDDDDDDDDDDDDDDDDDDDDDaCCCCCCCCCCCCCCCCCCCCCCCx3SDDDDDDDDDDDDDDDDDDDDDDDDDDDDAHHHHHHHHHHHHHHHHHHHH",
"HHHHHHHHHHHHHHHHHHHZDDDDDDDDDDDDDDDDDDDDDDDDDDDDDDDDVCCCCCCCCCCCCCCCCCCCCCCCe,3SDDDDDDDDDDDDDDDDDDDDDDDDDDDSZHHHHHHHHHHHHHHHHHHH",
"HHHHHHHHHHHHHHHHHH4DDDDDDDDDDDDDDDDDDDDDDDDDDDDDDDDmCCCCCCCCCCCCCCCCCCCCCCCCC2<3SDDDDDDDDDDDDDDDDDDDDDDDDDDDD4HHHHHHHHHHHHHHHHHH",
"HHHHHHHHHHHHHHHHH1DDDDDDDDDDDDDDDDDDDDDDDDDDDDDDDDDiCCCCCCCCCCCCCCCCCCCCCCCCCx<<3SDDDDDDDDDDDDDDDDDDDDDDDDDDDD1HHHHHHHHHHHHHHHHH",
"HHHHHHHHHHHHHHHH=DDDDDDDDDDDDDDDDDDDDDDDDDDDDDDDDDDaCCCCCCCCCCCCCCCCCCCCCCCCC9<<<1DDDDDDDDDDDDDDDDDDDDDDDDDDDDD=HHHHHHHHHHHHHHHH",
"HHHHHHHHHHHHHHHHSDDDDDDDDDDDDDDDDDDDDDDDDDDDDDDDDDDdCCCCCCCCCCCCCCCCCCCCCCCCCr<<<<3SDDDDDDDDDDDDDDDDDDDDDDDDDDDDHHHHHHHHHHHHHHHH",
"HHHHHHHHHHHHHHHADDDDDDDDDDDDDDDDDDDDDDDDDDDDDDDDDDDdCCCCCCCCCCCCCCCCCCCCCCCCCr<<<<,3SDDDDDDDDDDDDDDDDDDDDDDDDDDDAHHHHHHHHHHHHHHH",
"HHHHHHHHHHHHHH3DDDDDDDDDDDDDDDDDDDDDDDDDDDDDDDDDDDDgCCCCCCCCCCCCCCCCCCCCCCCCC9<<<,<<3SDDDDDDDDDDDDDDDDDDDDDDDDDDD3HHHHHHHHHHHHHH",
"HHHHHHHHHHHHH=DDDDDDDDDDDDDDDDDDDDDDDDDDDDDDDDDDDDDNCCCCCCCCCCCCCCCCCCCCCCCCCj<<<<<<<3SSDDDDDDDDDDDDDDDDDDDDDDDDDD&HHHHHHHHHHHHH",
"HHHHHHHHHHHHHDDDDDDDDDDDDDDDDDDDDDDDDDDDDDDDDDDDDDDnCCCCCCCCCCCCCCCCCCCCCCCCC2<<<<<<<<3SDDDDDDDDDDDDDDDDDDDDDDDDDDDHHHHHHHHHHHHH",
"HHHHHHHHHHHH3DDDDDDDDDDDDDDDDDDDDDDDDDDDDDDDDDDDDDDDBCCCCCCCCCCCCCCCCCCCCCCCs<<<<<<<<<<3SDDDDDDDDDDDDDDDDDDDDDDDDDD3HHHHHHHHHHHH",
"HHHHHHHHHHHHDDDDDDDDDDDDDDDDDDDDDDDDDDDDDDDDDDDDDDDDNCCCCCCCCCCCCCCCCCCCCCCCj<<<<<<<<<<<3SDDDDDDDDDDDDDDDDDDDDDDDDDDHHHHHHHHHHHH",
"HHHHHHHHHHHADDDDDDDDDDDDDDDDDSupssssssssspsssssssssssCCCCCCCCCCCCCCCCCCCCCCBsssssssssssppssssssspibSSDDDDDDDDDDDDDDDAHHHHHHHHHHH",
"HHHHHHHHHH=DDDDDDDDDDDDDDDDDcVCCCCCCCCCCCCCCCCCCCCCCCCCCCCCCCCCCCCCCCCCCCCCCCCCCCCVCCCCCCCCCCCCCCCC9DDDDDDDDDDDDDDDDD=HHHHHHHHHH",
"HHHHHHHHHHDDDDDDDDDDDDDDDDDbBCCCCCCCCCCCCCCCCCCCCCCCCCCCCCCCCCCCCCCCCCCCCCCCCCCCCCCCCCCCCCCCCCCCCCCw;SDDDDDDDDDDDDDDDSHHHHHHHHHH",
"HHHHHHHHH>DDDDDDDDDDDDDDDDDtCCCCCCCCCCCCCCCCCCCCCCCCCCCCCCCCCCCCCCCCCCCCCCCCCCCCCCCCCCCCCCCCCCCCCCw063DDDDDDDDDDDDDDDS>HHHHHHHHH",
"HHHHHHHHHSDDDDDDDDDDDDDDDDDeCCCCCCCCCCCCCCCCCCCCCCCCCCCCCCCCCCCCCCCCCCCCCCCCCCCCCCCCCCCCCCCCCCCCCw000<3SDDDDDDDDDDDDDDSHHHHHHHHH",
"HHHHHHHH=DDDDDDDDDDDDDDDDDDeCCCCCCCCCCCCCCCCCCCCCCCCCCCCCCCCCCCCCCCCCCCCCCCCCCCCCCCCCCCCCCCCCCCCw0000<<3DDDDDDDDDDDDDDS=HHHHHHHH",
"HHHHHHHHSDDDDDDDDDDDDDDDDDDeCCCCCCCCCCCCCCCCCCCCCCCCCCCCCCCCCCCCCCCCCCCCCCCCCCCCCCCCCCCCCCCCCCCw00000<<<1SDDDDDDDDDDDDDSHHHHHHHH",
"HHHHHHH*DDDDDDDDDDDDDDDDDDDBCCCCCCCCCCCCCCCCCCCCCCCCCCCCCCCCCCCCCCCCCCCCCCCCCCCCCCCCCCCCCCCCCCw000000<<<<1DDDDDDDDDDDDDD*HHHHHHH",
"HHHHHHHZDDDDDDDDDDDDDDDDDDDBCCCCCCCCCCCCCCCCCCCCCCCCCCCCCCCCCCCCCCCCCCCCCCCCCCCCCCCCCCCCCCCCCw0000000<<<<<1GDDDDDDDDDDDDZHHHHHHH",
"HHHHHHHDDDDDDDDDDDDDDDDDDDDeCCCCCCCCCCCCCCCCCCCCCCCCCCCCCCCCCCCCCCCCCCCCCCCCCCCCCCCCCCCCCCCCw00000000<<<<<<1DDDDDDDDDDDDDHHHHHHH",
"HHHHHH>DDDDDDDDDDDDDDDDDDDDeCCCCCCCCCCCCCCCCCCCCCCCCCCCCCCCCCCCCCCCCCCCCCCCCCCCCCCCCCCCCCCCw000000000><<<<<<1SDSDDDDDDDDD>HHHHHH",
"HHHHHHADDDDDDDDDDDDDDDDDDDDeCCCCCCCCCCCCCCCCCCCCCCCCCCCCCCCCCCCCCCCCCCCCCCCCCCCCCCCCCCCCCCw00000000002<<<<<<<1DSDDDDDDDDDAHHHHHH",
"HHHHHHDDDDDDDDDDDDDDDDDDDDDeCCCCCCCCCCCCCCCCCCCCCCCCCCCCCCCCCCCCCCCCCCCCCCCCCCCCCCCCCCCCCw00000000000<<<<<<<<<1GDDDDDDDDDDHHHHHH",
"HHHHH1DDDDDDDDDDDDDDDDDDDDDeCCCCCCCCCCCCCCCCCCCCCCCCCCCCCCCCCCCCCCCCCCCCCCCCCCCCCCCCCCCCw000000000000<<<<<<<<<<1DDDDDDDDDD<HHHHH",
"HHHHHADDDDDDDDDDDDDDDDDDDDDeCCCCCCCCCCCCCCCCCCCCCCCCCCCCCCCCCCCCCCCCCCCCCCCCCCCCCCCCCCCw0000000000000<<<<<<<<<<<1DDDDDDDDDAHHHHH",
"HHHHHDDDDDDDDDDDDDDDDDDDDDDeCCCCCCCCCCCCCCCCCCCCCCCCCCCCCCCCCCCCCCCCCCCCCCCCCCCCCCCCCCw00000000000000<<<<<<<<<<<<1DDDDDDDDDHHHHH",
"HHHH*DDDDDDDDDDDDDDDDDDDDDDeCCCCCCCCCCCCCCCCCCCCCCCCCCCCCCCCCCCCCCCCCCCCCCCCCCCCCCCCCw000000000000000<<<<<<<<<<<<<1DDDDDDDD*HHHH",
"HHHH3SDDDDDDDDDDDDDDDDDDDDDBCCCCCCCCCCCCCCCCCCCCCCCCCCCCCCCCCCCCCCCCCCCCCCCCCCCCCCCCw0000000000000000<<<<<<<<<<<<<<1DDDDDDD1HHHH",
"HHHHSDDDDDDDDDDDDDDDDDDDDDDeCCCCCCCCCCCCCCCCCCCCCCCCCCCCCCCCCCCCCCCCCCCCCCCCCCCCCCCw00000000000000000<<<<<<<<,<<<<<<1SDDDDDAHHHH",
"HHHHSDDDDDDDDDDDDDDDDDDDDDDeCCCCCCCCCCCCCCCCCCCCCCCCCCCCCCCCCCCCCCCCCCCCCCCCCCCCCCw000000000000000000<<<<<<<<<<<<<<<<1DDDDDDHHHH",
"HHHHDDDDDDDDDDDDDDDDDDDDDDDeCCCCCCCCCCCCCCCCCCCCCCCCCCCCCCCCCCCCCCCCCCCCCCCCCCCCVw0000000000000000000<<<<<<<,<<<<<<<<<1DDDDDHHHH",
"HHH=DDDDDDDDDDDDDDDDDDDDDDDeCCCCCCCCCCCCCCCCCCCCCCCCCCCCCCCCCCCCCCCCCCCCCCCCCCCCw00000000000000000000<<<<<<<<<<<<<<<<<<1DDDD=HHH",
"HHH1DDDDDDDDDDDDDDDDDDDDDDSeCCCCCCCCCCCCCCCCCCCCCCCCCCCCCCCCCCCCCCCCCCCCCCCCCCCw000000000000000000000<<<<<<<<<<<<<<<<<<<1SDD1HHH",
"HHHZDDDDDDDDDDDDDDDDDDDDDDSeCCCCCCCCCCCCCCCCCCCCCCCCCCCCCCCCCCCCCCCCCCCCCCCCCCw0000000000000000000000<<<<<<<<<<<<<<<<<<<<1DSZHHH",
"HHHADDDDDDDDDDDDDDDDDDDDDDDeCCCCCCCCCCCCCCCCCCCCCCCCCCCCCCCCCCCCCCCCCCCCCCCCCw00000000000000000000000<<<<<<<<<<<<<<<<<<<<<1DAHHH",
"HHHSDDDDDDDDDDDDDDDDDDDDDDSBCCdrxx79pBCCCCCCCCCCCCCCCCCCCCCCCCCCCCCCCCCCCCCCw000000000000000000000000<<<<<<<<<<<<<<<<<<<<1,3DHHH",
"HHHDDDDDDDDDDDDDDDDDDDDDDDDs8<<<<<<<<<;sCCCCCCCCCCCCCCCCCCCCCCCCCCCCCCCCCCCw00000000000000000000000002<<<<<<<,<<<<<<<,<<<<1<ZHHH",
"HHHDDDDDDDDDDDDDDDDDDDDDDDDZ<<<<<<<<<<<<heCCCCCCCCCCCCCCCCCCCCCCCCCCCCCCCCw00000000000000000000000000<<<<<<<<<<<<<<<<<<<<<,11HHH",
"HHHDDDDDDDDDDDDDDDDDDDDDDDDDZ<<<<,<<<<<<,<sCCCCCCCCCCCCCCCCCCCCCCCCCCCCCCw000000000000000000000000000<<<<<<<<<<<<<<<,<<<<<<<1HHH",
"HHHDDDDDDDDDDDDDDDDDDDDDDDDDDZ<<<<<<<<<<<<>dCCCCCCCCCCCCCCCCCCCCCCCCCCCCw0000000000000000000000000000<<<<<<<<<<<<<<<<<<<<<<<<HHH",
"HHHDDDDDDDDDDDDDDDDDDDDDDDDDDDZ<<<<<,<<<<<<<eCCCCCCCCCCCCCCCCCCCCCCCCCCw000000000000000000000000000002<<<<<<<<<<<<<<<<<<<<<<<HHH",
"HHHDDDDDDDDDDDDDDDDDDDDDDDDDDDDZ<<<<<<<<<<<<;CCCCCCCCCCCCCCCCCCCCCCCCCw000000000000000000000000000000<<<<<<<<<<<<<<<<<<<<<<<<HHH",
"HHHDDDDDDDDDDDDDDDDDDDDDDDDDDDDDZ<,<<<<<<<<<,tCCCCCCCCCCCCCCCCCCCCCCCw0000000000000000000000000000000::><<<<<<<<<<<<<<<<<<<<<HHH",
"HHHDDDDDDDDDDDDDDDDDDDDDDDDDDDDDDZ<<<<<<<<<<<;CCCCCCCCCCCCCCCCCCCCCCw000000000000000000000000000000002<><<<<<<<<<<<<<:<<<<<<<HHH",
"HHHGDDDDDDDDDDDDDDDDDDDDDDDDDDDDDDZ<<<<<<,<<<<eCCCCCCCCCCCCCCCCCCCCw0000000000000000000000000000000002<<<<<<<<<<<<<<<<<<<<<<<HHH",
"HHHDDDDDDDDDDDDDDDDDDDDDDDDDDDDDDDDZ<<<<<<<<<<rCCCCCCCCCCCCCCCCCCCw0000000000000000000000000000000000><<<<<<<<<<<<<<<<<<<<<<<HHH",
"HHHDDDDDDDDDDDDDDDDDDDDDDDDDDDDDDDDDZ<<<<<<<<<7CCCCCCCCCCCCCCCCCCw000000000000000000000000000000000002<<<><<,<<<<<<<<<<<<<<<<HHH",
"HHHDDDDDDDDDDDDDDDDDDDDDDDDDDDDDDDDDSZ<<<<<<<<jCCCCCCCCCCCCCCCCCw000000000000000000000000000000000000<<<<<<<<<<<<<<<<<<<<<<<<HHH",
"HHHDDDDDDDDDDDDDDDDDDDDDDDDDDDDDDDDDDDZ,<<<<<<hCCCCCCCCCCCCCCCCw00000000000000000000000000000000000002<<<<<<><<<<<<<<<<<<<<<<HHH",
"HHHSDDDDDDDDDDDDDDDDDDDDDDDDDDDDDDDDDDDZ<<<<<<jCCCCCCCCCCCCCCCw00000000000000000000000000000000000000<,<<<<<<<<<<<<<<<<<<<<<,HHH",
"HHHZSDDDDDDDDDDDDDDDDDDDDDDDDDDDDDDDDDDDZ<<<<<7CCCCCCCCCCCCCCw000000000000000000000000000000000000000<<<<<<<<<<<<:<<<<<<<,<<=HHH",
"HHH3DDDDDDDDDDDDDDDDDDDDDDDDDDDDDDDDDDDDDZ1<<<pCCCCCCCCCCCCCw0000000000000000000000000000000000000000<<<<<<<<<<<<<<<<<<<<<<<*HHH",
"HHH=DDDDDDDDDDDDDDDDDDDDDDDDDDDDDDDDDDDDSDZ<<<BCCCCCCCCCCCCw00000000000000000000000000000000000000000<<<<<<<<<<<<<<<<<<<<<<<#HHH",
"HHHHDDDDDDDDDDDDDDDDDDDDDDDDDDDDDDDDDDDDSSGZ<jCCCCCCCCCCCCw0000000000000000000000000000000000000000001<<<<<<<<<<<<<<<<<<<<<<HHHH",
"HHHHDDDDDDDDDDDDDDDDDDDDDDDDDDDDDDDDDDDDDDDD4fCCCCCCCCCCCw0000000000000000000000000000000000000000000<<<<<<<<<<<<<<<<<<<<<<<HHHH",
"HHHHADDDDDDDDDDDDDDDDDDDDDDDDDDDDDDDDDDDDDDDvCCCCCCCCCCCw00000000000000000000000000000000000000000000<<<<<<<<<<<<<<<<<<<<<<>HHHH",
"HHHH3DDDDDDDDDDDDDDDDDDDDDDDDDDDDDDDDDDDDDSnVCCCCCCCCCCw000000000000000000000000000000000000000000000<,,<<<<<<<<<<<<<<<<<<<*HHHH",
"HHHH*DDDDDDDDDDDDDDDDDDDDDDDDDDDDDDDDDDDDGFVCCCCCCCCCCw00000000000000000000000000000000000000000000002<<<<<<<<<<<<<<<<<<<<<#HHHH",
"HHHHHDDDDDDDDDDDDDDDDDDDDDDDDDDDDDDDDDDDDnVCCCCCCCCCCw00000000000000000000000000000000000000000000000<<<<<<<<<<<<<<<<<<<<<<HHHHH",
"HHHHHSDDDDDDDDDDDDDDDDDDDDDFDSDDDDDDGSDGiCCCCCCCCCCCw000000000000000000000000000000000000000000000000<<<<<<<<<<<<<<,<<<<<<<HHHHH",
"HHHHH<DDDDDDDDDDDDDDDDDDDDDBdMGGDDDDSniCCCCCCCCCCCCw0000000000000000000000000000000000000000000000000<<<<<<<<<<<<<<<<<<<<<$HHHHH",
"HHHHHHDDDDDDDDDDDDDDDDDDDDDBCCCfsgsdVCCCCCCCCCCCCCw00000000000000000000000000000000000000000000000000<<<<<<<<<<<<<<<<<<<<<HHHHHH",
"HHHHHHSSDDDDDDDDDDDDDDDDDDDeCCCCCCCCCCCCCCCCCCCCCw000000000000000000000000000000000000000000000000000<<<<<<<<<<<<<<<<<<<<<HHHHHH",
"HHHHHH,DDDDDDDDDDDDDDDDDDDDeCCCCCCCCCCCCCCCCCCCCw0000000000000000000000000000000000000000000000000000<<<<<<<<:<<<<<<<<<<<*HHHHHH",
"HHHHHHHDDDDDDDDDDDDDDDDDDDDeCCCCCCCCCCCCCCCCCCCw00000000000000000000000000000000000000000000000000000<<<<<<<<<<<<<<<<<<<<HHHHHHH",
"HHHHHHHZDDDDDDDDDDDDDDDDDDDeCCCCCCCCCCCCCCCCCCw000000000000000000000000000000000000000000000000000000<<<<<<<<<<<<<,<<<<<>HHHHHHH",
"HHHHHHH*DDDDDDDDDDDDDDDDDDDeCCCCCCCCCCCCCCCCCw0000000000000000000000000000000000000000000000000000000<<<<<<<<<<<<<<<<<<<@HHHHHHH",
"HHHHHHHHADDDDDDDDDDDDDDDDDDeCCCCCCCCCCCCCCCCw000000000000000000000000000000000000000000000000000000002<<<<<<<<<<<<<<<<<>HHHHHHHH",
"HHHHHHHH=DDDDDDDDDDDDDDDDDDeCCCCCCCCCCCCCCCw000000000000000000000000000000000000000000000000000000000<<<<<<<<<<<<<<<<<<@HHHHHHHH",
"HHHHHHHHHSDDDDDDDDDDDDDDDDDBCCCCCCCCCCCCCCw0000000000000000000000000000000000000000000000000000000000<<<<<<<<<<<<<<<<<>HHHHHHHHH",
"HHHHHHHHH,DDDDDDDDDDDDDDDDDeCCCCCCCCCCCCCw00000000000000000000000000000000000000000000000000000000000<<<<<<<<<<<<<<<<<#HHHHHHHHH",
"HHHHHHHHHHSDDDDDDDDDDDDDDDDeCCCCCCCCCCCCw0000000000000000000000000000000000000000000000000000000000002<<<<<<<<<<<<<<<>HHHHHHHHHH",
"HHHHHHHHHH>DDDDDDDDDDDDDDDDeCCCCCCCCCCCw0000000000000000000000000000000000000000000000000000000000000<<<<<<<<<<<<<<<<#HHHHHHHHHH",
"HHHHHHHHHHHADDDDDDDDDDDDDDSBCCCCCCCCCCw00000000000000000000000000000000000000000000000000000000000000<<<<<<<<<<<<<<<>HHHHHHHHHHH",
"HHHHHHHHHHHHDDDDDDDDDDDDDDDeCCCCCCCCCw000000000000000000000000000000000000000000000000000000000000000<<<<<<<<<<<<<<<XHHHHHHHHHHH",
"HHHHHHHHHHHH3DDDDDDDDDDDDDDBCCCCCCCCw00000000000000000000000000000000000000000000000000000000000000002<<<<<<<<<<<<<$HHHHHHHHHHHH",
"HHHHHHHHHHHHHDDDDDDDDDDDDDDeCCCCCCCw00000000000000000000000000000000000000000000000000000000000000000<<<<<<<<<<<<<<HHHHHHHHHHHHH",
"HHHHHHHHHHHHH&DDDDDDDDDDDDDeCCCCCCw000000000000000000000000000000000000000000000000000000000000000000<<<<<<<<<<<<<@HHHHHHHHHHHHH",
"HHHHHHHHHHHHHH3DDDDDDDDDDDDeCCCCBd0000000000000000000000000000000000000000000000000000000000000000000<<<<<<<<<<<<&HHHHHHHHHHHHHH",
"HHHHHHHHHHHHHHHADDDDDDDDDDDeCCCCw000000000000000000000000000000000000000000000000000000000000000000002<<<<<<<<<<>HHHHHHHHHHHHHHH",
"HHHHHHHHHHHHHHHHSDDDDDDDDDDdCCCw0000000000000000000000000000000000000000000000000000000000000000000001<<<<<<<<<<HHHHHHHHHHHHHHHH",
"HHHHHHHHHHHHHHHH=DDDDDDDDDDuCCw000000000000000000000000000000000000000000000000000000000000000000000z<1<<<<<<<<#HHHHHHHHHHHHHHHH",
"HHHHHHHHHHHHHHHHH1DDDDDDDDDDew00000000000000000000000000000000000000000000000000000000000000000000002<<1<<<<<<*HHHHHHHHHHHHHHHHH",
"HHHHHHHHHHHHHHHHHH1DDDDDDDDDA500000000000000000000000000000000000000000000000000000000000000000000q2<<<<1<<<<*HHHHHHHHHHHHHHHHHH",
"HHHHHHHHHHHHHHHHHHHZDDDDDDDDDZ2-;------------------kkkk;kkkkkkk;kkkkkkkkkk;;kkkkkkkkkkkkkk;-kkk-;2<<<<<<,1<<=HHHHHHHHHHHHHHHHHHH",
"HHHHHHHHHHHHHHHHHHHHADDDDDDDDDA<<<<<<<<<<<<<,<<<<<<<<<<<<<<<<<<<<<<<<<<<<<<<<<<<<<<<<<<<<<<<<<<<<1<<<<<<<<<,HHHHHHHHHHHHHHHHHHHH",
"HHHHHHHHHHHHHHHHHHHHHADDDDDDDDDA,,<<<<<<<<<<<<<<<<<<<<<<<<<<<<<<<<<<<<<<<<<<<<<<<<<<<<<<<<<<<<<<<<<<<<<<<<>HHHHHHHHHHHHHHHHHHHHH",
"HHHHHHHHHHHHHHHHHHHHHHZDDDDDDDDDS<<<<<<<<<<<<<<<<<<<<<<,<<<<<<<<<<<<<<<<<<<<<<<<<<<<<<<<<<<<<<<<<<<1<<<<<=HHHHHHHHHHHHHHHHHHHHHH",
"HHHHHHHHHHHHHHHHHHHHHHH4DDDDDDDDDA<<<<<<<<<<<<,<<<<<<<<<<<<<<<<<<<<<<<<<<<<<<<<<<<<<<<<<<<<<<<<<<<<<1<<<=HHHHHHHHHHHHHHHHHHHHHHH",
"HHHHHHHHHHHHHHHHHHHHHHHH4DDDDDDDDDS<<<<<<<<<<<<<<<<<<<<<<<<<<<<<<<<<<<<<<<<<<<<<<<<<<<<<<<<<<<<<<<<<<1<*HHHHHHHHHHHHHHHHHHHHHHHH",
"HHHHHHHHHHHHHHHHHHHHHHHHH<DDDDDDDDDA<<,,<<<<<<<<<<<<<<<<<<<<<<<<<<<<<<<<<<<<<<<<<<<<<<<<<<<<<<<<<<<<<<$HHHHHHHHHHHHHHHHHHHHHHHHH",
"HHHHHHHHHHHHHHHHHHHHHHHHHHHSDDDDDDDDA<1,<<<<<<<<<<<<<<<<<<<<<<<<<<<<<<<<<<<<<<<<<<<<<<<<<<<<<<<<<<<<>oHHHHHHHHHHHHHHHHHHHHHHHHHH",
"HHHHHHHHHHHHHHHHHHHHHHHHHHHHZDDDDDDDDA<<<<<<<<<<<<<<<<<<<<<<<:<<<<<<<<<<<<<<<<<<<<<<<<<<<<<<<<<<,<<=HHHHHHHHHHHHHHHHHHHHHHHHHHHH",
"HHHHHHHHHHHHHHHHHHHHHHHHHHHHH<DDDDDDDDS<,<<<<<<<<<<<<<<<<<<<<<<<<<<<<<<<<<<<<<<<<<<<<<<<<<<<<<<<<<$HHHHHHHHHHHHHHHHHHHHHHHHHHHHH",
"HHHHHHHHHHHHHHHHHHHHHHHHHHHHHHHADDDDDDDA1,,,<<,<<<<<<<<<<<<<<<<<<<<<<<<<<<<<<<<<<<<<<<<<<<<<<<<<=.HHHHHHHHHHHHHHHHHHHHHHHHHHHHHH",
"HHHHHHHHHHHHHHHHHHHHHHHHHHHHHHHH*SDDDDDDA<1<<<<<<<<<<<<<<<<<<<<<<<<<<<<<<<<<<<<<<<<<<<<<<<<<<<<#HHHHHHHHHHHHHHHHHHHHHHHHHHHHHHHH",
"HHHHHHHHHHHHHHHHHHHHHHHHHHHHHHHHHHZDDDDDDA1,<<<<<<<<<<<<<<<<<<<<<<<<<<<<<<<<<<<<<<<<<<<<<<<<<*HHHHHHHHHHHHHHHHHHHHHHHHHHHHHHHHHH",
"HHHHHHHHHHHHHHHHHHHHHHHHHHHHHHHHHHHH3DDDDDA,<<<<<<<<<<<<<<,<<<<<<<<<<<<<<<<<<<<<<<<<<<<<<<<*HHHHHHHHHHHHHHHHHHHHHHHHHHHHHHHHHHHH",
"HHHHHHHHHHHHHHHHHHHHHHHHHHHHHHHHHHHHHH3SDDDA1<<<<<<<<<:<<<<<<<<<<<<<<<<<<<<<<*:Z<<<<<<<<<=HHHHHHHHHHHHHHHHHHHHHHHHHHHHHHHHHHHHHH",
"HHHHHHHHHHHHHHHHHHHHHHHHHHHHHHHHHHHHHHHH1DDDA<<<<<<<<<<<<<<<<<<<<<<<<<<<<<<<<Z:*<<<<<<<$HHHHHHHHHHHHHHHHHHHHHHHHHHHHHHHHHHHHHHHH",
"HHHHHHHHHHHHHHHHHHHHHHHHHHHHHHHHHHHHHHHHHH=ADA<<<<<<<<<<<<<<<<<<<<<<<<<<<:<<Z:Z=<<<<=@HHHHHHHHHHHHHHHHHHHHHHHHHHHHHHHHHHHHHHHHHH",
"HHHHHHHHHHHHHHHHHHHHHHHHHHHHHHHHHHHHHHHHHHHHH:Z<<<<<<<<<<<<<<<<<<<<<<<<<<<<<=*Z:<=#HHHHHHHHHHHHHHHHHHHHHHHHHHHHHHHHHHHHHHHHHHHHH",
"HHHHHHHHHHHHHHHHHHHHHHHHHHHHHHHHHHHHHHHHHHHHHHHH+*:1<<<<<<<<<<<<<<<<<<<<<<<<:<$+HHHHHHHHHHHHHHHHHHHHHHHHHHHHHHHHHHHHHHHHHHHHHHHH",
"HHHHHHHHHHHHHHHHHHHHHHHHHHHHHHHHHHHHHHHHHHHHHHHHHHHH.@$*<<<<<<<<<<<<<<<<*$#oHHHHHHHHHHHHHHHHHHHHHHHHHHHHHHHHHHHHHHHHHHHHHHHHHHHH",
"HHHHHHHHHHHHHHHHHHHHHHHHHHHHHHHHHHHHHHHHHHHHHHHHHHHHHHHHHHHHoo++++o.HHHHHHHHHHHHHHHHHHHHHHHHHHHHHHHHHHHHHHHHHHHHHHHHHHHHHHHHHHHH",
"HHHHHHHHHHHHHHHHHHHHHHHHHHHHHHHHHHHHHHHHHHHHHHHHHHHHHHHHHHHHHHHHHHHHHHHHHHHHHHHHHHHHHHHHHHHHHHHHHHHHHHHHHHHHHHHHHHHHHHHHHHHHHHHH"
};
