/* XPM */
static char *_ea23025a683459fa0a103ba094dbf18[] = {
/* columns rows colors chars-per-pixel */
"64 64 186 2 ",
"   c #3D525B",
".  c #435660",
"X  c #445862",
"o  c #445963",
"O  c #445A63",
"+  c #445964",
"@  c #455A64",
"#  c #465B64",
"$  c #475C67",
"%  c #485C69",
"&  c #485E68",
"*  c #495F68",
"=  c #4A5F69",
"-  c #495F6A",
";  c #4A616B",
":  c #4A626B",
">  c #4A606D",
",  c #4A626C",
"<  c #4B636D",
"1  c #4B636F",
"2  c #4C626D",
"3  c #4C636D",
"4  c #4D626E",
"5  c #4C636E",
"6  c #4C636F",
"7  c #4B646F",
"8  c #4D646F",
"9  c #577E6B",
"0  c #4D6470",
"q  c #4C6570",
"w  c #4D6570",
"e  c #4D6571",
"r  c #4E6570",
"t  c #4F6671",
"y  c #4D6672",
"u  c #4E6772",
"i  c #4F6772",
"p  c #4F6873",
"a  c #4F6874",
"s  c #506774",
"d  c #506873",
"f  c #506973",
"g  c #506874",
"h  c #506975",
"j  c #516975",
"k  c #526975",
"l  c #506A75",
"z  c #516A75",
"x  c #526A76",
"c  c #526B76",
"v  c #536B76",
"b  c #526B77",
"n  c #536B77",
"m  c #516F74",
"M  c #526C77",
"N  c #526B78",
"B  c #536B78",
"V  c #536B79",
"C  c #536C78",
"Z  c #536C79",
"A  c #536D79",
"S  c #536D7B",
"D  c #546D79",
"F  c #546E79",
"G  c #546E7A",
"H  c #556E7C",
"J  c #566F7C",
"K  c #4F7270",
"L  c #517371",
"P  c #517372",
"I  c #557271",
"U  c #527473",
"Y  c #537176",
"T  c #537D72",
"R  c #55707C",
"E  c #56707D",
"W  c #58727E",
"Q  c #4CAF50",
"!  c #6BB94D",
"~  c #6DBA4C",
"^  c #6EBA4D",
"/  c #78B74F",
"(  c #7BB94E",
")  c #7AB84F",
"_  c #7AB94F",
"`  c #7BB94F",
"'  c #7DBA4D",
"]  c #7EBB4D",
"[  c #7DBB4F",
"{  c #7EBC4C",
"}  c #7FBD4C",
"|  c #7FBC4D",
" . c #6FAB54",
".. c #61A15B",
"X. c #6AA25F",
"o. c #6FA95E",
"O. c #6FAA5E",
"+. c #71AE53",
"@. c #72AE53",
"#. c #70AB59",
"$. c #70AE5B",
"%. c #73B152",
"&. c #75B351",
"*. c #76B551",
"=. c #77B650",
"-. c #73B157",
";. c #74B257",
":. c #7AB750",
">. c #7AB951",
",. c #73B058",
"<. c #4E8D62",
"1. c #4F8D64",
"2. c #5B8567",
"3. c #5C8567",
"4. c #53876C",
"5. c #598369",
"6. c #509066",
"7. c #529167",
"8. c #529267",
"9. c #519D60",
"0. c #619064",
"q. c #679D63",
"w. c #65976A",
"e. c #64956C",
"r. c #67986F",
"t. c #6A9F68",
"y. c #6A9E69",
"u. c #699D6A",
"i. c #689A6E",
"p. c #618B72",
"a. c #628C77",
"s. c #60877B",
"d. c #648F79",
"f. c #638B7D",
"g. c #659176",
"h. c #6AA160",
"j. c #6AA260",
"k. c #69A062",
"l. c #6EA761",
"z. c #6DA563",
"x. c #6CA265",
"c. c #6BA068",
"v. c #81BE4B",
"b. c #80BD4D",
"n. c #82BF4C",
"m. c #82BF4D",
"M. c #85C14B",
"N. c #84C04C",
"B. c #88C24B",
"V. c #89C24B",
"C. c #8AC24A",
"Z. c #8BC24A",
"A. c #8AC34A",
"S. c #8BC34A",
"D. c #8AC24B",
"F. c #587380",
"G. c #597380",
"H. c #597481",
"J. c #5A7682",
"K. c #5B7682",
"L. c #5B7683",
"P. c #5B7684",
"I. c #5B7785",
"U. c #5C7785",
"Y. c #5C7885",
"T. c #5C7886",
"R. c #5D7886",
"E. c #5D7986",
"W. c #5D7987",
"Q. c #5D7A87",
"!. c #5E7A86",
"~. c #5E7A88",
"^. c #5E7B88",
"/. c #5E7B89",
"(. c #5F7B8A",
"). c #5F7C89",
"_. c #5F7C8A",
"`. c #5F7D8A",
"'. c #5F7C8B",
"]. c #607D8A",
"[. c #607D8B",
"{. c #607E8B",
"}. c #5F8187",
"|. c #628780",
" X c #628484",
".X c None",
/* pixels */
".X.X.X.X.X.X.X.X.X.X.X.X.X.X.X.X.X.X.X.X.X.X.X.X.X.X.X.X.X.X.X.X.X.X.X.X.X.X.X.X.X.X.X.X.X.X.X.X.X.X.X.X.X.X.X.X.X.X.X.X.X.X.X.X",
".X.X.X.X.X.X.X.X.X.X.X.X.X.X.X.X.X.X.X.X.X.X.X.X.X8 D R.[.[.[.[.[.[.{.).P.R 0 .X.X.X.X.X.X.X.X.X.X.X.X.X.X.X.X.X.X.X.X.X.X.X.X.X",
".X.X.X.X.X.X.X.X.X.X.X.X.X.X.X.X.X.X.X.X.X.XH ).[.[.{.{.[.[.[.[.[.[.[.[.[.[.[.[.).H .X.X.X.X.X.X.X.X.X.X.X.X.X.X.X.X.X.X.X.X.X.X",
".X.X.X.X.X.X.X.X.X.X.X.X.X.X.X.X.X.X.X6 W.[.[.[.[.[.{.{.[.[.[.[.[.[.[.[.[.[.[.[.[.[.[.W.0 .X.X.X.X.X.X.X.X.X.X.X.X.X.X.X.X.X.X.X",
".X.X.X.X.X.X.X.X.X.X.X.X.X.X.X.X.X6 ~.[.[.[.[.[.[.[.[.[.[.[.[.[.[.[.[.[.[.[.[.[.[.[.[.[.[.~.8 .X.X.X.X.X.X.X.X.X.X.X.X.X.X.X.X.X",
".X.X.X.X.X.X.X.X.X.X.X.X.X.X.X.XR.[.[.[.[.[.[.[.[.[.[.[.[.[.{.{.[.[.[.[.[.[.[.[.[.[.[.[.[.[.[.R..X.X.X.X.X.X.X.X.X.X.X.X.X.X.X.X",
".X.X.X.X.X.X.X.X.X.X.X.X.X.XC [.[.[.[.[.[.[.[.[.[.[.[.[.[. Xx.,.;.O.g.[.[.[.[.[.[.[.[.[.[.[.[.[.[.V .X.X.X.X.X.X.X.X.X.X.X.X.X.X",
".X.X.X.X.X.X.X.X.X.X.X.X.XL.[.[.[.[.[.[.[.[.[.[.[.[.[.[.l.V.D.Z.S.S.D.>.|.[.[.[.[.[.[.[.[.[.[.[.[.[.L..X.X.X.X.X.X.X.X.X.X.X.X.X",
".X.X.X.X.X.X.X.X.X.X.X.X~.{.{.{.[.[.[.[.[.[.[.[.[.[.[.-.S.S.S.S.S.S.S.S.N.s.[.[.[.[.[.[.[.[.[.[.[.[.{.~..X.X.X.X.X.X.X.X.X.X.X.X",
".X.X.X.X.X.X.X.X.X.X.X~.).{.[.{.[.[.[.[.[.[.[.[.[.[.c.S.S.S.S.S.S.S.S.S.D.] W.[.[.[.[.[.[.[.[.[.[.[.[.[.~..X.X.X.X.X.X.X.X.X.X.X",
".X.X.X.X.X.X.X.X.X.X).[.[.[.[.[.[.[.[.[.[.[.[.[.[.[.N.D.S.S.S.S.S.S.S.S.Z.S.0.~.[.[.[.[.[.[.[.[.[.[.[.[.{.)..X.X.X.X.X.X.X.X.X.X",
".X.X.X.X.X.X.X.X.X~.[.[.[.[.[.[.[.[.[.[.[.[.[.[.).g.S.S.S.S.S.S.S.S.S.S.Z.D.@.D W.[.[.[.[.[.[.[.[.[.{.{.{.{.~..X.X.X.X.X.X.X.X.X",
".X.X.X.X.X.X.X.XR.[.[.[.[.[.[.[.[.[.[.[.[.[.[.[.{.u.Z.Z.S.S.S.S.S.S.S.S.S.S.=.f n W.'.'.{.{.[.[.[.[.[.[.[.[.[.W..X.X.X.X.X.X.X.X",
".X.X.X.X.X.X.XD [.[.[.[.[.[.[.[.[.[.[.[.[.[.[.[.{.r.S.S.S.S.S.S.S.S.S.S.S.S.=.f f n ~.'.{.{.[.[.[.[.[.[.[.[.[.[.H .X.X.X.X.X.X.X",
".X.X.X.X.X.X$ [.[.[.[.[.[.[.[.[.[.[.[.[.[.[.[.[.{.f.S.S.S.S.S.S.S.S.S.S.S.S.+.f f V V ~.{.[.[.[.[.[.[.[.[.[.[.[.[.# .X.X.X.X.X.X",
".X.X.X.X.X.X~.[.[.[.[.[.[.[.[.[.[.[.[.[.[.[.{.{.{.{.[ S.S.S.S.S.S.S.S.S.S.S.2.f f f a f W.[.[.[.[.[.[.[.[.[.[.[.[.~..X.X.X.X.X.X",
".X.X.X.X.XC ).{.[.[.[.[.[.[.w.>.| | b.| | b.| | b.| M.S.S.S.S.S.S.S.S.S.S.B.| { { { { | | | | | =.q.{.{.[.[.[.[.[.[.f .X.X.X.X.X",
".X.X.X.X.X'.{.{.[.[.[.[.[.a.D.S.S.D.S.S.D.S.S.D.S.S.D.S.S.S.S.S.S.S.S.S.S.S.S.S.S.S.S.S.S.S.S.S.Z.^ T {.[.[.[.[.[.[.[..X.X.X.X.X",
".X.X.X.XV [.{.[.[.[.[.[.[.h.S.S.S.S.S.S.S.S.S.S.S.S.S.S.S.S.S.S.S.S.S.S.S.S.S.S.S.S.S.S.S.S.S.S.^ Q 1.D {.[.[.[.[.[.[.V .X.X.X.X",
".X.X.X.X).[.[.[.[.[.[.[.[.j.S.S.S.S.S.S.S.S.S.S.S.S.S.S.S.S.S.S.S.S.S.S.S.S.S.S.S.S.S.S.S.S.S.~ Q Q <.n D [.[.{.[.[.[.'..X.X.X.X",
".X.X.X0 {.[.[.[.[.[.[.[.[.j.S.S.S.S.S.S.S.S.S.S.S.S.S.S.S.S.S.S.S.S.S.S.S.S.S.S.S.S.S.S.S.S.~ Q Q Q 1.f V C {.{.[.[.[.[.0 .X.X.X",
".X.X.XR.{.[.[.[.[.[.[.[.[.j.S.S.S.S.S.S.S.S.S.S.S.S.S.S.S.S.S.S.S.S.S.S.S.S.S.S.S.S.S.S.S.~ Q Q Q Q 1.f f f D {.[.[.[.[.R..X.X.X",
".X.X.X{.[.[.[.[.[.[.[.[.[.j.S.S.S.S.S.S.S.S.S.S.S.S.S.S.S.S.S.S.S.S.S.S.S.S.S.S.S.S.S.S.~ Q Q Q Q Q <.f V V f C [.[.[.[.{..X.X.X",
".X.X0 [.[.[.[.[.[.[.[.[.[.j.S.S.S.S.S.S.S.S.S.S.S.S.S.S.S.S.S.S.S.S.S.S.S.S.S.S.S.S.S.~ Q Q Q Q Q Q <.f a f a V D [.[.{.{.6 .X.X",
".X.XF.{.[.[.[.[.[.[.[.[.[.j.S.S.S.S.S.S.S.S.S.S.S.S.S.S.S.S.S.S.S.S.S.S.S.S.S.S.S.S.~ Q Q Q Q Q Q Q <.M a a a a f H {.{.{.W .X.X",
".X.X~.{.[.[.[.[.[.[.[.[.[.h.S.S.S.S.S.S.S.S.S.S.S.S.S.S.S.S.S.S.S.S.S.S.S.S.S.S.S.~ Q Q Q Q Q Q Q Q <.a C a C a f V D '.[.'..X.X",
".X.X{.{.[.[.[.[.[.[.[.[.[.h.Z.Z.S.S.S.S.S.S.S.S.S.S.S.S.S.S.S.S.S.S.S.S.S.S.S.S.~ Q Q Q Q Q Q Q Q Q <.a a a a C f a V H {.{..X.X",
".X.X[.{.[.[.[.[.[.[.[.[.[.X.S.Z.S.S.S.S.S.S.S.S.S.S.S.S.S.S.S.S.S.S.S.S.S.S.S.~ Q Q Q Q Q Q Q Q Q Q 1.a C a a a f V a f D {..X.X",
".X6 [.[.[.[.[.[.[.[.[.[.[.h.D.] =.=.b.S.S.S.S.S.S.S.S.S.S.S.S.S.S.S.S.S.S.S.~ Q Q Q Q Q Q Q Q Q Q Q 6.a a C a C a a a a V H > .X",
".Xf [.[.[.[.[.[.[.[.[.[.{.p.9 V f f a 2.>.S.S.S.S.S.S.S.S.S.S.S.S.S.S.S.S.~ Q Q Q Q Q Q Q Q Q Q Q Q 8.a a a a a f a V a f S 0 .X",
".Xn {.{.[.[.[.[.[.[.[.[.[.[.F.f f a a a f -.D.S.S.S.S.S.S.S.S.S.S.S.S.S.~ Q Q Q Q Q Q Q Q Q Q Q Q Q 8.a a M a a V a f V V f 0 .X",
".XD {.{.[.[.[.[.[.[.[.[.[.[.{.F.f V f V f f >.D.S.S.S.S.S.S.S.S.S.S.S.~ Q Q Q Q Q Q Q Q Q Q Q Q Q Q 8.n a n a V a a a a a a a .X",
".XC [.[.[.[.[.[.[.[.[.[.[.[.[.[.F.h f a V f 5.Z.S.S.S.S.S.S.S.S.S.S.~ Q Q Q Q Q Q Q Q Q Q Q Q Q Q Q 8.a C a a a a a C a a a a .X",
".XV [.[.[.[.[.[.[.[.[.[.[.[.[.[.{.F.V a a f f b.S.S.S.S.S.S.S.S.S.! Q Q Q Q Q Q Q Q Q Q Q Q Q Q Q Q 8.M a a a C a C a a a C 7 .X",
".Xf [.[.[.[.[.[.[.[.[.[.[.[.[.[.[.[.H.V f V f ;.S.S.S.S.S.S.S.S.! Q Q Q Q Q Q Q Q Q Q Q Q Q Q Q Q Q 8.a C a M a a a a a f f > .X",
".X> [.[.[.[.[.[.[.[.[.[.[.[.[.[.[.[.{.F.f a f %.S.S.S.S.S.S.S.! Q Q Q Q Q Q Q Q Q Q Q Q Q Q Q Q Q Q 8.a a a a a a C a C V f & .X",
".X.X{.{.[.[.[.[.[.[.[.[.[.[.[.[.[.[.[.[.F.V f ` S.S.S.S.S.S.! Q Q Q Q Q Q Q Q Q Q Q Q Q Q Q Q Q Q Q 8.a a n a n V a V f a V .X.X",
".X.X{.{.[.[.[.[.[.[.[.[.[.[.[.[.[.[.[.[.{.F.I V.S.S.S.S.S.! Q Q Q Q Q Q Q Q Q Q Q Q Q Q Q Q Q Q Q Q 8.a a a a a a a a a a a .X.X",
".X.X~.{.[.[.[.[.[.[.[.[.[.[.{.{.[.[.[.[.{.{.$.S.S.S.S.S.! Q Q Q Q Q Q Q Q Q Q Q Q Q Q Q Q Q Q Q Q Q 8.M M a n M a a a a f f .X.X",
".X.XF.{.[.[.[.[.[.[.[.[.[.[.{.{.[.[.[.[.{.r.V.S.S.S.S.! Q Q Q Q Q Q Q Q Q Q Q Q Q Q Q Q Q Q Q Q Q Q 8.a a a a a V f V f f 6 .X.X",
".X.X8 [.[.[.[.[.[.[.[.[.[.).).{.[.[.[.[.l.V.S.S.S.S.! Q Q Q Q Q Q Q Q Q Q Q Q Q Q Q Q Q Q Q Q Q Q Q 8.a a a a a a a C a a $ .X.X",
".X.X.X[.[.[.[.[.[.[.[.[.[.X.| O.u.u.$.N.D.Z.S.S.S.! Q Q Q Q Q Q Q Q Q Q Q Q Q Q Q Q Q Q Q Q Q Q Q Q 8.a a C a C V a a a a .X.X.X",
".X.X.XW.[.[.[.[.[.[.[.[.[.j.S.S.Z.S.S.S.S.S.S.S.! Q Q Q Q Q Q Q Q Q Q Q Q Q Q Q Q Q Q Q Q Q Q Q Q Q 8.a C a a a a n a a 0 .X.X.X",
".X.X.X0 [.[.[.[.[.[.[.[.[.h.S.S.S.S.S.S.S.S.D.^ Q Q Q Q Q Q Q Q Q Q Q Q Q Q Q Q Q Q Q Q Q Q Q Q Q Q 8.C a a a M a a a M # .X.X.X",
".X.X.X.X[.[.[.[.[.[.[.[.).h.S.S.S.S.S.S.S.S.! Q Q Q Q Q Q Q Q Q Q Q Q Q Q Q Q Q Q Q Q Q Q Q Q Q Q Q 8.C a a a a a a f f .X.X.X.X",
".X.X.X.XV [.[.[.[.[.[.[.{.h.S.S.S.S.S.S.S.! Q Q Q Q Q Q Q Q Q Q Q Q Q Q Q Q Q Q Q Q Q Q Q Q Q Q Q Q 8.a V a n a f V f & .X.X.X.X",
".X.X.X.X.X[.[.[.[.[.{.{.{.h.S.S.S.S.S.S.! Q Q Q Q Q Q Q Q Q Q Q Q Q Q Q Q Q Q Q Q Q Q Q Q Q Q Q Q Q 8.a a a a a V a f .X.X.X.X.X",
".X.X.X.X.Xf [.[.[.{.{.{.{.j.S.S.S.S.S.! Q Q Q Q Q Q Q Q Q Q Q Q Q Q Q Q Q Q Q Q Q Q Q Q Q Q Q Q Q Q 8.a V f a V a a & .X.X.X.X.X",
".X.X.X.X.X.X~.[.[.[.[.[.[.h.S.S.S.S.! Q Q Q Q Q Q Q Q Q Q Q Q Q Q Q Q Q Q Q Q Q Q Q Q Q Q Q Q Q Q Q 8.C a a M a C a .X.X.X.X.X.X",
".X.X.X.X.X.X# [.[.[.[.[.[.h.S.S.S.! Q Q Q Q Q Q Q Q Q Q Q Q Q Q Q Q Q Q Q Q Q Q Q Q Q Q Q Q Q Q Q Q 8.a n a a a a   .X.X.X.X.X.X",
".X.X.X.X.X.X.XD [.[.[.[.[.h.S.S.! Q Q Q Q Q Q Q Q Q Q Q Q Q Q Q Q Q Q Q Q Q Q Q Q Q Q Q Q Q Q Q Q Q 8.a a a a n > .X.X.X.X.X.X.X",
".X.X.X.X.X.X.X.XW.).[.[.[.e.S.! Q Q Q Q Q Q Q Q Q Q Q Q Q Q Q Q Q Q Q Q Q Q Q Q Q Q Q Q Q Q Q Q Q Q 4.C V f f 0 .X.X.X.X.X.X.X.X",
".X.X.X.X.X.X.X.X.X~.{.{.[.[...Q Q Q Q Q Q Q Q Q Q Q Q Q Q Q Q Q Q Q Q Q Q Q Q Q Q Q Q Q Q Q Q Q Q 9.M f C a 0 .X.X.X.X.X.X.X.X.X",
".X.X.X.X.X.X.X.X.X.X~.{.[.[.).Y P K K K K P P P K P U U U U U U U U U U U U U U U U U U U U U U Y a a M V C .X.X.X.X.X.X.X.X.X.X",
".X.X.X.X.X.X.X.X.X.X.X~.{.{.).).N M a a a a a a a a M a M a C a a a C a a a a a a n a V a a a a V C n a a .X.X.X.X.X.X.X.X.X.X.X",
".X.X.X.X.X.X.X.X.X.X.X.X~.{.{.'.).C n a M a a M a a a a a a a a a C a a a C a M a a a a V f a V a a C a .X.X.X.X.X.X.X.X.X.X.X.X",
".X.X.X.X.X.X.X.X.X.X.X.X.XL.{.{.[.).V f a f a a C a C a a a a a C a a a C a C a a a a a a a a a f f 0 .X.X.X.X.X.X.X.X.X.X.X.X.X",
".X.X.X.X.X.X.X.X.X.X.X.X.X.XV {.[.[.).V V f n a a a a a n a V a a a a C a a a a V a f V a V a N f $ .X.X.X.X.X.X.X.X.X.X.X.X.X.X",
".X.X.X.X.X.X.X.X.X.X.X.X.X.X.X.XP.[.[.[.V a a a a a C a a a f V C a C a a a C a a a a V a f f 0 .X.X.X.X.X.X.X.X.X.X.X.X.X.X.X.X",
".X.X.X.X.X.X.X.X.X.X.X.X.X.X.X.X.X6 ~.{.).V n a a C a a a M a a a a a a a C a a V f f f a a # .X.X.X.X.X.X.X.X.X.X.X.X.X.X.X.X.X",
".X.X.X.X.X.X.X.X.X.X.X.X.X.X.X.X.X.X.X6 ~.'.D f a a M a N a a a a V a V C a C a f V a 0 + .X.X.X.X.X.X.X.X.X.X.X.X.X.X.X.X.X.X.X",
".X.X.X.X.X.X.X.X.X.X.X.X.X.X.X.X.X.X.X.X.X.XH f n a a a a a a V a a a f a a a a f & .X.X.X.X.X.X.X.X.X.X.X.X.X.X.X.X.X.X.X.X.X.X",
".X.X.X.X.X.X.X.X.X.X.X.X.X.X.X.X.X.X.X.X.X.X.X.X.X# > 7 f V f f a n f a > ; $ .X.X.X.X.X.X.X.X.X.X.X.X.X.X.X.X.X.X.X.X.X.X.X.X.X",
".X.X.X.X.X.X.X.X.X.X.X.X.X.X.X.X.X.X.X.X.X.X.X.X.X.X.X.X.X.X.X.X.X.X.X.X.X.X.X.X.X.X.X.X.X.X.X.X.X.X.X.X.X.X.X.X.X.X.X.X.X.X.X.X"
};
