/* XPM */
static char *fe191fbc481f482cc4801bb939bcf7da[] = {
/* columns rows colors chars-per-pixel */
"32 32 113 2 ",
"   c #3D5158",
".  c #3C525A",
"X  c #3F545B",
"o  c #3F515C",
"O  c #40545D",
"+  c #455B65",
"@  c #465A65",
"#  c #465B65",
"$  c #465B66",
"%  c #475C66",
"&  c #475C67",
"*  c #4A616B",
"=  c #4F7B6C",
"-  c #517D6E",
";  c #537F6F",
":  c #4D6470",
">  c #4D6570",
",  c #4E6671",
"<  c #4F6671",
"1  c #4E6672",
"2  c #4E6772",
"3  c #4E6773",
"4  c #4F6773",
"5  c #506973",
"6  c #506874",
"7  c #516874",
"8  c #506974",
"9  c #516974",
"0  c #506975",
"q  c #516975",
"w  c #516A75",
"e  c #526A75",
"r  c #526A76",
"t  c #526A77",
"y  c #526B77",
"u  c #546D79",
"i  c #546E7A",
"p  c #556E7A",
"a  c #556F7A",
"s  c #546E7B",
"d  c #566F7C",
"f  c #527F70",
"g  c #547D73",
"h  c #63975F",
"j  c #64995D",
"k  c #55B24F",
"l  c #4CAF50",
"z  c #77B84F",
"x  c #7BBA4F",
"c  c #6CA557",
"v  c #6CA657",
"b  c #6FAA55",
"n  c #6FAC55",
"m  c #6EA85F",
"M  c #76B552",
"N  c #7BBA50",
"B  c #79B852",
"V  c #4E8E62",
"C  c #4F8E62",
"Z  c #5B8467",
"A  c #508F63",
"S  c #5A8269",
"D  c #5E876A",
"F  c #538C6B",
"G  c #568D6A",
"H  c #539367",
"J  c #6A9F68",
"K  c #699D6A",
"L  c #638C77",
"P  c #648D75",
"I  c #62887C",
"U  c #648C7C",
"Y  c #639171",
"T  c #649072",
"R  c #659076",
"E  c #6BA365",
"W  c #6EA860",
"Q  c #82BF4B",
"!  c #84C14A",
"~  c #85C14B",
"^  c #87C24A",
"/  c #84C04C",
"(  c #89C24A",
")  c #88C24B",
"_  c #8AC34A",
"`  c #8BC34A",
"'  c #597481",
"]  c #5A7482",
"[  c #5A7582",
"{  c #5B7583",
"}  c #5A7682",
"|  c #5C7786",
" . c #5C7885",
".. c #5D7886",
"X. c #5D7986",
"o. c #5D7A86",
"O. c #5D7A87",
"+. c #5C7E85",
"@. c #5E7A88",
"#. c #5E7B89",
"$. c #5F7B8A",
"%. c #5F7C88",
"&. c #5F7C89",
"*. c #5F7C8A",
"=. c #5F7C8B",
"-. c #5F7D8B",
";. c #607F89",
":. c #607D8A",
">. c #607D8B",
",. c #628683",
"<. c #618287",
"1. c #608088",
"2. c None",
/* pixels */
"2.2.2.2.2.2.2.2.2.2.2.2.2.% , q y 3 % 2.2.2.2.2.2.2.2.2.2.2.2.2.",
"2.2.2.2.2.2.2.2.2.2.q X.:.:.>.>.*.:.:.:.X.q 2.2.2.2.2.2.2.2.2.2.",
"2.2.2.2.2.2.2.2.3 *.>.>.>.>.>.>.>.>.>.>.>.>.*.q 2.2.2.2.2.2.2.2.",
"2.2.2.2.2.2.2.X.>.>.>.>.>.>.J B B W <.>.>.>.:.>.X.2.2.2.2.2.2.2.",
"2.2.2.2.2.2.$.:.>.>.>.>.:.W ` ` ` ` M >.>.>.>.>.>.$.2.2.2.2.2.2.",
"2.2.2.2.2.:.>.>.>.>.>.>.:.) ` ` ` ` ` D :.>.>.>.>.>.*.2.2.2.2.2.",
"2.2.2.2.$.>.>.>.>.>.:.:.U ` ` ` ` ` ` h a *.*.>.>.>.>.*.2.2.2.2.",
"2.2.2.} *.>.>.>.>.>.>.:.*._ ` ` ` ` ` Z q d -.>.>.>.>.:.} 2.2.2.",
"2.2.% :.>.>.<.N Q Q Q Q Q _ _ ` ` ` ) ! / ! Q / z +.*.>.>.$ 2.2.",
"2.2.X.>.>.>.T _ ` ` ` ` ` ` ` ` ` ` ` ` ) ) ) / k - X.-.>.| 2.2.",
"2.2.>.>.>.>.T ` ` ` ` ` ` ` ` ` ` ` ` ` ) ` / k l = y  .>.>.2.2.",
"2.d >.>.:.:.Y _ ` ` ` ` ` ` ` ` ` ` ` ` ) ^ k l l = q y X.*.a 2.",
"2.$.>.>.>.>.Y _ ` ` _ ` ` ` ` ` ` ` ` ` ) k l l l = 0 0 q  .$.2.",
"2.*.>.>.>.>.Y _ ` ` _ _ ` ` ` ` ` ` ) ^ l l l l l = 0 0 q y X.2.",
"2.:.>.>.>.>.L c j n _ _ ` ` ` ` _ _ ^ k l l l l l S 0 0 0 0 y 2.",
"2.:.>.>.>.>.>.} q q S ) ` ` ` ` _ ^ k l l l l l l f 0 0 0 q q 2.",
"2.>.>.>.>.>.>.>.] q 3 b ` ` _ _ ^ k l l l l l l l - 0 0 0 0 0 2.",
"2.>.>.>.>.>.>.>.>.' q h ` ` _ ! k l l l l l l l l S 0 0 0 0 0 2.",
"2.>.>.>.>.>.>.>.>.>.' c ` ` ! k l l l l l l l l l f 3 0 0 0 0 2.",
"2.$.>.>.>.>.>.>.>.>.,.^ _ ^ k l l l l l l l l l l f 3 0 0 0 0 2.",
"2.a :.:.>.>.I K R E ) ) ! k l l l l l l l l l l l S y 3 0 0 * 2.",
"2.2.>.>.>.>.Y _ ) ` _ ^ k l l l l l l l l l l l l g 3 y 0 0 . 2.",
"2.2.| >.>.>.T ` _ _ ^ k l l l l l l l l l l l l l f y 3 y 3 2.2.",
"2.2.$ >.>.:.Y ` _ Q k l l l l l l l l l l l l l l f 3 y 3 o 2.2.",
"2.2.2.} >.:.Y _ Q k l l l l l l l l l l l l l l l f 0 0 : 2.2.2.",
"2.2.2.2.$.:.L ^ k l l l l l l l l l l l l l l l l g y 3 2.2.2.2.",
"2.2.2.2.2.:.*.G V V V V A H H H H H H H H H H H F 0 s 2.2.2.2.2.",
"2.2.2.2.2.2.$.:.a 0 0 0 q q q 0 0 0 0 0 0 0 0 0 t 0 . 2.2.2.2.2.",
"2.2.2.2.2.2.2.X.:.a q 0 0 0 0 0 0 0 0 0 0 0 0 q 3 2.2.2.2.2.2.2.",
"2.2.2.2.2.2.2.2.: :.a q 0 0 0 0 0 0 0 0 0 0 3 $ 2.2.2.2.2.2.2.2.",
"2.2.2.2.2.2.2.2.2.2.q y q 0 0 0 0 q 0 0 , & 2.2.2.2.2.2.2.2.2.2.",
"2.2.2.2.2.2.2.2.2.2.2.2.2.. $ & & $ X 2.2.2.2.2.2.2.2.2.2.2.2.2."
};
