/* XPM */
static char *a905c6ec44b940d6a83a86fbabe54024[] = {
/* columns rows colors chars-per-pixel */
"16 16 75 1 ",
"  c #40545B",
". c #445762",
"X c #485E68",
"o c #485E69",
"O c #485F69",
"+ c #485E6A",
"@ c #495F6A",
"# c #4A606B",
"$ c #4B616C",
"% c #4B606D",
"& c #4C626E",
"* c #4C636E",
"= c #4D656F",
"- c #4F7C6B",
"; c #507D6C",
": c #527E6E",
"> c #4C6470",
", c #4D6570",
"< c #4E6470",
"1 c #4E6570",
"2 c #506974",
"3 c #506975",
"4 c #516A77",
"5 c #526A76",
"6 c #526A77",
"7 c #526B77",
"8 c #536C78",
"9 c #547577",
"0 c #56707D",
"q c #57717D",
"w c #59727E",
"e c #4E955E",
"r c #4F965E",
"t c #5EB54E",
"y c #4CAF50",
"u c #7DBB4D",
"i c #6BA55E",
"p c #6DA75C",
"a c #6EA95B",
"s c #72AF55",
"d c #71AD5B",
"f c #73B153",
"g c #77B554",
"h c #5D8964",
"j c #5C8865",
"k c #52816E",
"l c #52806F",
"z c #599762",
"x c #519963",
"c c #529A62",
"v c #529A63",
"b c #699F62",
"n c #67996F",
"m c #699B6C",
"M c #608B71",
"N c #6BA166",
"B c #86C04A",
"V c #87C14B",
"C c #88C24A",
"Z c #89C24A",
"A c #88C24B",
"S c #8AC24A",
"D c #8BC34A",
"F c #597381",
"G c #597481",
"H c #5A7481",
"J c #5B7784",
"K c #5C7785",
"L c #5F7C8A",
"P c #5F7C8B",
"I c #617F89",
"U c #607D8A",
"Y c #607D8B",
"T c #5E8180",
"R c None",
/* pixels */
"RRRRRR7qq7RRRRRR",
"RRRRKYYnmYYHRRRR",
"RR@PPYNDDaYYP@RR",
"RRPYPPdDDfqPYYRR",
"RHYaVVDDDDVBzPHR",
"RYYfDDDDDDDtr8PR",
"<YYfDDDDDDtyr38=",
"7YYMhuDDVtyyc33=",
"7YYYFjDDtyyyc33%",
"=YYYPbDtyyyyc33o",
"RYYigVtyyyyyc33R",
"RHPfDtyyyyyyc7*R",
"RRPstyyyyyyyc3RR",
"RR+M;-:llll:9.RR",
"RRRRw733337=RRRR",
"RRRRRR#%%o RRRRR"
};
